STARTFONT 2.1
FONT -Adobe-ITC Souvenir-Demi-R-Normal--14-100-100-100-P-90-ISO8859-15
SIZE 10 100 100
FONTBOUNDINGBOX 16 18 -1 -3

STARTPROPERTIES 30
FOUNDRY "Adobe"
FAMILY_NAME "ITC Souvenir"
WEIGHT_NAME "Demi"
SLANT "R"
SETWIDTH_NAME "Normal"
ADD_STYLE_NAME ""
PIXEL_SIZE 14
POINT_SIZE 100
RESOLUTION_X 100
RESOLUTION_Y 100
SPACING "P"
AVERAGE_WIDTH 90
CHARSET_REGISTRY "ISO8859"
CHARSET_ENCODING "15"
CAP_HEIGHT 11
X_HEIGHT 7
FACE_NAME "ITC Souvenir Demi"
COPYRIGHT "Copyright (c) 1984, 1987 Adobe Systems Incorporated. All Rights Reserved. Copyright (c) 1988, 1991 Digital Equipment Corporation. All Rights Reserved."
NOTICE "ITC Souvenir is a registered trademark of International Typeface Corporation.  "
_DEC_DEVICE_FONTNAMES "PS=Souvenir-Demi"
_DEC_PRODUCTINFO "DECwindows Fonts V2.2-1, 04-Dec-1991"
RELATIVE_SETWIDTH 50
RELATIVE_WEIGHT 60
CHARSET_COLLECTIONS "ASCII ISO8859-1 ADOBE-STANDARD"
FULL_NAME "ITC Souvenir Demi"
WEIGHT 10
QUAD_WIDTH 10
DEFAULT_CHAR 32
FONT_DESCENT 3
FONT_ASCENT 13
ENDPROPERTIES

CHARS 191

STARTCHAR space
ENCODING 32
SWIDTH 340 0
DWIDTH 5 0
BBX 1 1 0 0
BITMAP
00
ENDCHAR

STARTCHAR exclam
ENCODING 33
SWIDTH 360 0
DWIDTH 5 0
BBX 2 11 1 0
BITMAP
C0
C0
C0
C0
C0
C0
80
80
00
C0
C0
ENDCHAR

STARTCHAR quotedbl
ENCODING 34
SWIDTH 580 0
DWIDTH 8 0
BBX 6 4 1 7
BITMAP
CC
CC
88
88
ENDCHAR

STARTCHAR numbersign
ENCODING 35
SWIDTH 680 0
DWIDTH 10 0
BBX 8 9 1 1
BITMAP
12
12
7F
24
24
FE
48
48
48
ENDCHAR

STARTCHAR dollar
ENCODING 36
SWIDTH 680 0
DWIDTH 10 0
BBX 7 14 1 -2
BITMAP
10
10
7C
C6
C0
F0
7C
1E
06
C2
C6
7C
10
10
ENDCHAR

STARTCHAR percent
ENCODING 37
SWIDTH 940 0
DWIDTH 13 0
BBX 12 11 0 0
BITMAP
7040
D8C0
8980
8980
DB00
76E0
0DB0
1910
1910
31B0
20E0
ENDCHAR

STARTCHAR ampersand
ENCODING 38
SWIDTH 840 0
DWIDTH 12 0
BBX 11 11 0 0
BITMAP
1E00
3B00
3300
3300
1E00
3CE0
66C0
C380
C300
7780
3DE0
ENDCHAR

STARTCHAR quoteright
ENCODING 39
SWIDTH 320 0
DWIDTH 5 0
BBX 2 4 1 7
BITMAP
C0
C0
40
80
ENDCHAR

STARTCHAR parenleft
ENCODING 40
SWIDTH 340 0
DWIDTH 5 0
BBX 4 14 0 -3
BITMAP
30
60
60
C0
C0
C0
C0
C0
C0
C0
C0
60
60
30
ENDCHAR

STARTCHAR parenright
ENCODING 41
SWIDTH 340 0
DWIDTH 5 0
BBX 4 14 0 -3
BITMAP
C0
60
60
30
30
30
30
30
30
30
30
60
60
C0
ENDCHAR

STARTCHAR asterisk
ENCODING 42
SWIDTH 400 0
DWIDTH 6 0
BBX 5 6 0 5
BITMAP
20
A8
70
70
A8
20
ENDCHAR

STARTCHAR plus
ENCODING 43
SWIDTH 660 0
DWIDTH 9 0
BBX 7 7 1 1
BITMAP
10
10
10
FE
10
10
10
ENDCHAR

STARTCHAR comma
ENCODING 44
SWIDTH 340 0
DWIDTH 5 0
BBX 2 4 1 -2
BITMAP
C0
C0
40
80
ENDCHAR

STARTCHAR minus
ENCODING 45
SWIDTH 660 0
DWIDTH 10 0
BBX 7 1 1 4
BITMAP
FE
ENDCHAR

STARTCHAR period
ENCODING 46
SWIDTH 340 0
DWIDTH 5 0
BBX 2 2 1 0
BITMAP
C0
C0
ENDCHAR

STARTCHAR slash
ENCODING 47
SWIDTH 460 0
DWIDTH 7 0
BBX 7 13 0 -2
BITMAP
02
06
04
0C
08
18
10
30
20
60
40
C0
80
ENDCHAR

STARTCHAR zero
ENCODING 48
SWIDTH 680 0
DWIDTH 10 0
BBX 9 11 0 0
BITMAP
1C00
7700
6300
C180
C180
C180
C180
C180
6300
7700
1C00
ENDCHAR

STARTCHAR one
ENCODING 49
SWIDTH 680 0
DWIDTH 10 0
BBX 6 11 2 0
BITMAP
30
F0
30
30
30
30
30
30
30
30
FC
ENDCHAR

STARTCHAR two
ENCODING 50
SWIDTH 680 0
DWIDTH 10 0
BBX 7 11 1 0
BITMAP
7C
C6
C6
0E
1C
38
70
60
C2
FE
FE
ENDCHAR

STARTCHAR three
ENCODING 51
SWIDTH 680 0
DWIDTH 10 0
BBX 7 11 1 0
BITMAP
7C
CE
C6
06
0E
3C
0E
06
C6
CE
7C
ENDCHAR

STARTCHAR four
ENCODING 52
SWIDTH 680 0
DWIDTH 10 0
BBX 8 11 1 0
BITMAP
06
0E
1E
36
26
66
C6
FF
06
06
0F
ENDCHAR

STARTCHAR five
ENCODING 53
SWIDTH 680 0
DWIDTH 10 0
BBX 7 11 1 0
BITMAP
7E
7C
40
80
FC
8E
06
06
C6
CC
78
ENDCHAR

STARTCHAR six
ENCODING 54
SWIDTH 680 0
DWIDTH 10 0
BBX 8 11 1 0
BITMAP
0E
38
70
60
DE
E7
C3
C3
E3
66
3C
ENDCHAR

STARTCHAR seven
ENCODING 55
SWIDTH 680 0
DWIDTH 10 0
BBX 7 11 1 0
BITMAP
FE
FE
86
0C
0C
18
18
38
30
70
70
ENDCHAR

STARTCHAR eight
ENCODING 56
SWIDTH 680 0
DWIDTH 10 0
BBX 9 11 0 0
BITMAP
3E00
7300
6100
7300
3E00
3E00
6700
C380
C180
6300
3E00
ENDCHAR

STARTCHAR nine
ENCODING 57
SWIDTH 680 0
DWIDTH 10 0
BBX 8 11 1 0
BITMAP
3C
66
C7
C3
C3
E7
7B
06
0E
1C
70
ENDCHAR

STARTCHAR colon
ENCODING 58
SWIDTH 340 0
DWIDTH 5 0
BBX 2 6 1 0
BITMAP
C0
C0
00
00
C0
C0
ENDCHAR

STARTCHAR semicolon
ENCODING 59
SWIDTH 340 0
DWIDTH 5 0
BBX 2 8 1 -2
BITMAP
C0
C0
00
00
C0
C0
40
80
ENDCHAR

STARTCHAR less
ENCODING 60
SWIDTH 660 0
DWIDTH 10 0
BBX 8 9 0 0
BITMAP
01
07
1C
70
C0
70
1C
07
01
ENDCHAR

STARTCHAR equal
ENCODING 61
SWIDTH 660 0
DWIDTH 10 0
BBX 7 3 1 3
BITMAP
FE
00
FE
ENDCHAR

STARTCHAR greater
ENCODING 62
SWIDTH 660 0
DWIDTH 10 0
BBX 8 9 1 0
BITMAP
80
E0
38
0E
03
0E
38
E0
80
ENDCHAR

STARTCHAR question
ENCODING 63
SWIDTH 540 0
DWIDTH 8 0
BBX 6 11 1 0
BITMAP
78
CC
CC
0C
18
30
20
20
00
30
30
ENDCHAR

STARTCHAR at
ENCODING 64
SWIDTH 860 0
DWIDTH 13 0
BBX 10 11 1 0
BITMAP
1E00
6180
4040
8D40
9A40
B240
B680
9900
4040
6180
1E00
ENDCHAR

STARTCHAR A
ENCODING 65
SWIDTH 740 0
DWIDTH 13 0
BBX 12 11 0 0
BITMAP
0600
0E00
0F00
1B00
1380
3180
2180
3FC0
60C0
40E0
E1F0
ENDCHAR

STARTCHAR B
ENCODING 66
SWIDTH 740 0
DWIDTH 11 0
BBX 10 11 0 0
BITMAP
FF00
6380
6180
6180
6300
7F80
61C0
60C0
60C0
6180
FF00
ENDCHAR

STARTCHAR C
ENCODING 67
SWIDTH 760 0
DWIDTH 11 0
BBX 10 11 0 0
BITMAP
1F00
7180
6080
E000
C000
C000
C000
E000
6040
7180
1F00
ENDCHAR

STARTCHAR D
ENCODING 68
SWIDTH 820 0
DWIDTH 11 0
BBX 10 11 0 0
BITMAP
FE00
6380
6180
60C0
60C0
60C0
60C0
60C0
6180
6380
FE00
ENDCHAR

STARTCHAR E
ENCODING 69
SWIDTH 660 0
DWIDTH 10 0
BBX 9 11 0 0
BITMAP
FF80
6080
6000
6000
6200
7E00
6200
6000
6000
6080
FF80
ENDCHAR

STARTCHAR F
ENCODING 70
SWIDTH 620 0
DWIDTH 9 0
BBX 8 11 0 0
BITMAP
FF
61
60
60
62
7E
62
60
60
60
F0
ENDCHAR

STARTCHAR G
ENCODING 71
SWIDTH 780 0
DWIDTH 11 0
BBX 10 11 0 0
BITMAP
1F00
7180
6080
E000
C000
C000
C3C0
E0C0
60C0
71C0
1F00
ENDCHAR

STARTCHAR H
ENCODING 72
SWIDTH 820 0
DWIDTH 12 0
BBX 11 11 0 0
BITMAP
F1E0
60C0
60C0
60C0
60C0
7FC0
60C0
60C0
60C0
60C0
F1E0
ENDCHAR

STARTCHAR I
ENCODING 73
SWIDTH 340 0
DWIDTH 5 0
BBX 4 11 0 0
BITMAP
F0
60
60
60
60
60
60
60
60
60
F0
ENDCHAR

STARTCHAR J
ENCODING 74
SWIDTH 560 0
DWIDTH 9 0
BBX 8 11 0 0
BITMAP
0F
06
06
06
06
06
66
E6
C6
6E
3C
ENDCHAR

STARTCHAR K
ENCODING 75
SWIDTH 780 0
DWIDTH 12 0
BBX 11 11 0 0
BITMAP
F3C0
6180
6300
6600
6C00
7C00
6E00
6700
6380
61C0
F3E0
ENDCHAR

STARTCHAR L
ENCODING 76
SWIDTH 600 0
DWIDTH 9 0
BBX 8 11 0 0
BITMAP
F0
60
60
60
60
60
60
60
61
61
FF
ENDCHAR

STARTCHAR M
ENCODING 77
SWIDTH 920 0
DWIDTH 13 0
BBX 12 11 0 0
BITMAP
E070
60E0
70E0
71E0
5960
5B60
4E60
4E60
4460
4060
E0F0
ENDCHAR

STARTCHAR N
ENCODING 78
SWIDTH 760 0
DWIDTH 11 0
BBX 10 11 0 0
BITMAP
E1C0
7080
7080
7880
5C80
4C80
4E80
4780
4380
4380
E180
ENDCHAR

STARTCHAR O
ENCODING 79
SWIDTH 860 0
DWIDTH 12 0
BBX 11 11 0 0
BITMAP
1F00
71C0
60C0
E0E0
C060
C060
C060
E0E0
60C0
71C0
1F00
ENDCHAR

STARTCHAR P
ENCODING 80
SWIDTH 680 0
DWIDTH 10 0
BBX 9 11 0 0
BITMAP
FF00
6380
6180
6180
6380
6700
7C00
6000
6000
6000
F000
ENDCHAR

STARTCHAR Q
ENCODING 81
SWIDTH 860 0
DWIDTH 12 0
BBX 11 13 0 -2
BITMAP
1F00
71C0
60C0
C060
C060
C060
C060
C060
64C0
75C0
1F00
03E0
01C0
ENDCHAR

STARTCHAR R
ENCODING 82
SWIDTH 740 0
DWIDTH 12 0
BBX 11 11 0 0
BITMAP
FF00
6380
6180
6180
6300
7E00
6E00
6700
6380
61C0
F3E0
ENDCHAR

STARTCHAR S
ENCODING 83
SWIDTH 680 0
DWIDTH 10 0
BBX 9 11 0 0
BITMAP
3E00
6300
C100
E000
FC00
7F00
0F80
0380
8180
E300
7E00
ENDCHAR

STARTCHAR T
ENCODING 84
SWIDTH 680 0
DWIDTH 9 0
BBX 8 11 0 0
BITMAP
FF
99
18
18
18
18
18
18
18
18
3C
ENDCHAR

STARTCHAR U
ENCODING 85
SWIDTH 760 0
DWIDTH 12 0
BBX 11 11 0 0
BITMAP
F0E0
6040
6040
6040
6040
6040
6040
6040
70C0
3980
1F00
ENDCHAR

STARTCHAR V
ENCODING 86
SWIDTH 740 0
DWIDTH 12 0
BBX 11 11 0 0
BITMAP
F0E0
6040
6040
60C0
70C0
3080
3180
3980
1B00
1F00
0E00
ENDCHAR

STARTCHAR W
ENCODING 87
SWIDTH 1000 0
DWIDTH 14 0
BBX 13 11 0 0
BITMAP
F7B8
6310
6310
6310
6310
6730
37B0
35A0
3DE0
1CE0
18C0
ENDCHAR

STARTCHAR X
ENCODING 88
SWIDTH 740 0
DWIDTH 11 0
BBX 10 11 0 0
BITMAP
F1C0
6080
3100
3B00
1E00
0C00
1E00
3700
2380
4180
E3C0
ENDCHAR

STARTCHAR Y
ENCODING 89
SWIDTH 740 0
DWIDTH 11 0
BBX 10 11 0 0
BITMAP
F3C0
6180
7100
3300
1E00
1C00
0C00
0C00
0C00
0C00
1E00
ENDCHAR

STARTCHAR Z
ENCODING 90
SWIDTH 620 0
DWIDTH 9 0
BBX 8 11 0 0
BITMAP
FF
83
07
0E
1C
18
38
70
E0
C1
FF
ENDCHAR

STARTCHAR bracketleft
ENCODING 91
SWIDTH 320 0
DWIDTH 5 0
BBX 3 14 1 -3
BITMAP
E0
C0
C0
C0
C0
C0
C0
C0
C0
C0
C0
C0
C0
E0
ENDCHAR

STARTCHAR backslash
ENCODING 92
SWIDTH 640 0
DWIDTH 9 0
BBX 6 11 1 0
BITMAP
C0
40
60
20
20
30
10
18
08
0C
04
ENDCHAR

STARTCHAR bracketright
ENCODING 93
SWIDTH 320 0
DWIDTH 5 0
BBX 3 14 1 -3
BITMAP
E0
60
60
60
60
60
60
60
60
60
60
60
60
E0
ENDCHAR

STARTCHAR asciicircum
ENCODING 94
SWIDTH 660 0
DWIDTH 10 0
BBX 8 9 1 2
BITMAP
18
18
3C
24
66
42
C3
81
81
ENDCHAR

STARTCHAR underscore
ENCODING 95
SWIDTH 500 0
DWIDTH 7 0
BBX 7 1 0 -2
BITMAP
FE
ENDCHAR

STARTCHAR quoteleft
ENCODING 96
SWIDTH 320 0
DWIDTH 5 0
BBX 2 4 1 7
BITMAP
40
80
C0
C0
ENDCHAR

STARTCHAR a
ENCODING 97
SWIDTH 580 0
DWIDTH 9 0
BBX 8 7 0 0
BITMAP
7C
C6
3E
E6
C6
EE
77
ENDCHAR

STARTCHAR b
ENCODING 98
SWIDTH 620 0
DWIDTH 9 0
BBX 8 11 0 0
BITMAP
60
E0
60
60
6C
76
63
63
63
76
3C
ENDCHAR

STARTCHAR c
ENCODING 99
SWIDTH 520 0
DWIDTH 8 0
BBX 7 7 0 0
BITMAP
3C
66
C2
C0
C0
62
3C
ENDCHAR

STARTCHAR d
ENCODING 100
SWIDTH 620 0
DWIDTH 9 0
BBX 8 11 0 0
BITMAP
06
0E
06
06
36
6E
C6
C6
C6
6E
3B
ENDCHAR

STARTCHAR e
ENCODING 101
SWIDTH 560 0
DWIDTH 8 0
BBX 7 7 0 0
BITMAP
3C
66
CE
FC
C0
62
3C
ENDCHAR

STARTCHAR f
ENCODING 102
SWIDTH 360 0
DWIDTH 6 0
BBX 5 11 0 0
BITMAP
38
68
60
60
F8
60
60
60
60
60
F8
ENDCHAR

STARTCHAR g
ENCODING 103
SWIDTH 600 0
DWIDTH 8 0
BBX 7 10 0 -3
BITMAP
3E
6C
C6
C6
C6
6C
3C
06
CE
7C
ENDCHAR

STARTCHAR h
ENCODING 104
SWIDTH 620 0
DWIDTH 10 0
BBX 9 11 0 0
BITMAP
6000
E000
6000
6000
6E00
7700
6300
6300
6300
6300
F780
ENDCHAR

STARTCHAR i
ENCODING 105
SWIDTH 300 0
DWIDTH 5 0
BBX 4 10 0 0
BITMAP
60
60
00
60
E0
60
60
60
60
F0
ENDCHAR

STARTCHAR j
ENCODING 106
SWIDTH 300 0
DWIDTH 4 0
BBX 4 13 -1 -3
BITMAP
30
30
00
30
70
30
30
30
30
30
30
F0
60
ENDCHAR

STARTCHAR k
ENCODING 107
SWIDTH 600 0
DWIDTH 9 0
BBX 8 11 0 0
BITMAP
60
E0
60
60
67
66
6C
78
6C
66
F7
ENDCHAR

STARTCHAR l
ENCODING 108
SWIDTH 300 0
DWIDTH 5 0
BBX 4 11 0 0
BITMAP
60
E0
60
60
60
60
60
60
60
60
F0
ENDCHAR

STARTCHAR m
ENCODING 109
SWIDTH 920 0
DWIDTH 13 0
BBX 12 7 0 0
BITMAP
6DC0
F760
6660
6660
6660
6660
F6F0
ENDCHAR

STARTCHAR n
ENCODING 110
SWIDTH 620 0
DWIDTH 10 0
BBX 9 7 0 0
BITMAP
6E00
F700
6300
6300
6300
6300
F780
ENDCHAR

STARTCHAR o
ENCODING 111
SWIDTH 620 0
DWIDTH 9 0
BBX 8 7 0 0
BITMAP
3C
66
C3
C3
C3
66
3C
ENDCHAR

STARTCHAR p
ENCODING 112
SWIDTH 640 0
DWIDTH 9 0
BBX 8 10 0 -3
BITMAP
5C
F6
63
63
63
66
6C
60
60
F0
ENDCHAR

STARTCHAR q
ENCODING 113
SWIDTH 620 0
DWIDTH 9 0
BBX 8 10 0 -3
BITMAP
3A
6E
C6
C6
C6
6E
36
06
06
0F
ENDCHAR

STARTCHAR r
ENCODING 114
SWIDTH 440 0
DWIDTH 6 0
BBX 5 7 0 0
BITMAP
58
F8
60
60
60
60
F0
ENDCHAR

STARTCHAR s
ENCODING 115
SWIDTH 500 0
DWIDTH 7 0
BBX 6 7 0 0
BITMAP
78
CC
E0
78
1C
CC
78
ENDCHAR

STARTCHAR t
ENCODING 116
SWIDTH 380 0
DWIDTH 5 0
BBX 4 9 0 0
BITMAP
60
60
F0
60
60
60
60
60
70
ENDCHAR

STARTCHAR u
ENCODING 117
SWIDTH 620 0
DWIDTH 10 0
BBX 9 7 0 0
BITMAP
6300
E700
6300
6300
6300
7700
3B80
ENDCHAR

STARTCHAR v
ENCODING 118
SWIDTH 540 0
DWIDTH 9 0
BBX 8 7 0 0
BITMAP
E7
C2
62
66
34
3C
18
ENDCHAR

STARTCHAR w
ENCODING 119
SWIDTH 800 0
DWIDTH 12 0
BBX 11 7 0 0
BITMAP
F6E0
6640
6640
3680
3680
3B00
1B00
ENDCHAR

STARTCHAR x
ENCODING 120
SWIDTH 560 0
DWIDTH 8 0
BBX 7 7 0 0
BITMAP
EE
64
38
18
2C
46
EE
ENDCHAR

STARTCHAR y
ENCODING 121
SWIDTH 540 0
DWIDTH 8 0
BBX 7 10 0 -3
BITMAP
E6
62
62
62
62
34
1C
08
70
60
ENDCHAR

STARTCHAR z
ENCODING 122
SWIDTH 500 0
DWIDTH 7 0
BBX 6 7 0 0
BITMAP
FC
8C
18
30
60
C4
FC
ENDCHAR

STARTCHAR braceleft
ENCODING 123
SWIDTH 340 0
DWIDTH 5 0
BBX 4 14 0 -3
BITMAP
30
60
60
60
60
60
C0
60
60
60
60
60
60
30
ENDCHAR

STARTCHAR bar
ENCODING 124
SWIDTH 660 0
DWIDTH 10 0
BBX 1 11 4 0
BITMAP
80
80
80
80
80
80
80
80
80
80
80
ENDCHAR

STARTCHAR braceright
ENCODING 125
SWIDTH 340 0
DWIDTH 5 0
BBX 4 14 0 -3
BITMAP
C0
60
60
60
60
60
30
60
60
60
60
60
60
C0
ENDCHAR

STARTCHAR asciitilde
ENCODING 126
SWIDTH 660 0
DWIDTH 10 0
BBX 8 3 0 3
BITMAP
73
DB
CE
ENDCHAR

STARTCHAR space
ENCODING 160
SWIDTH 340 0
DWIDTH 5 0
BBX 1 1 0 0
BITMAP
00
ENDCHAR

STARTCHAR exclamdown
ENCODING 161
SWIDTH 360 0
DWIDTH 5 0
BBX 2 11 1 -3
BITMAP
C0
C0
00
40
40
C0
C0
C0
C0
C0
C0
ENDCHAR

STARTCHAR cent
ENCODING 162
SWIDTH 680 0
DWIDTH 10 0
BBX 6 11 2 0
BITMAP
10
10
78
6C
C0
C0
C0
6C
78
10
10
ENDCHAR

STARTCHAR sterling
ENCODING 163
SWIDTH 680 0
DWIDTH 10 0
BBX 8 11 0 0
BITMAP
1E
33
63
60
60
FC
30
30
61
FF
CE
ENDCHAR

STARTCHAR EuroSign
ENCODING 164
SWIDTH 499 0
DWIDTH 7 0
BBX 7 10 -1 0
BITMAP
1E
32
60
FC
60
FC
60
60
32
1C
ENDCHAR

STARTCHAR yen
ENCODING 165
SWIDTH 760 0
DWIDTH 10 0
BBX 10 11 0 0
BITMAP
F1C0
E080
7180
3B00
1E00
0C00
3F00
0C00
3F00
0C00
1E00
ENDCHAR

STARTCHAR Scaron
ENCODING 166
SWIDTH 680 0
DWIDTH 10 0
BBX 9 15 0 0
BITMAP
3300
1E00
0C00
0000
3E00
6300
C100
E000
FC00
7F00
0F80
0380
8180
E300
7E00
ENDCHAR

STARTCHAR section
ENCODING 167
SWIDTH 600 0
DWIDTH 9 0
BBX 7 14 1 -3
BITMAP
7C
E2
C2
E0
7C
6E
C6
C6
EC
7C
0E
86
8E
7C
ENDCHAR

STARTCHAR scaron
ENCODING 168
SWIDTH 500 0
DWIDTH 7 0
BBX 6 11 0 0
BITMAP
CC
78
30
00
78
CC
E0
78
1C
CC
78
ENDCHAR

STARTCHAR copyright
ENCODING 169
SWIDTH 840 0
DWIDTH 12 0
BBX 11 13 0 -1
BITMAP
0E00
3180
4040
4F40
99A0
B020
B020
B020
99A0
4F40
4040
3180
0E00
ENDCHAR

STARTCHAR ordfeminine
ENCODING 170
SWIDTH 440 0
DWIDTH 6 0
BBX 5 7 0 5
BITMAP
70
18
78
D8
68
00
78
ENDCHAR

STARTCHAR guillemotleft
ENCODING 171
SWIDTH 380 0
DWIDTH 7 0
BBX 6 6 0 1
BITMAP
24
6C
D8
D8
6C
24
ENDCHAR

STARTCHAR logicalnot
ENCODING 172
SWIDTH 660 0
DWIDTH 10 0
BBX 7 4 1 2
BITMAP
FE
02
02
02
ENDCHAR

STARTCHAR hyphen
ENCODING 173
SWIDTH 340 0
DWIDTH 5 0
BBX 4 1 0 4
BITMAP
F0
ENDCHAR

STARTCHAR registered
ENCODING 174
SWIDTH 840 0
DWIDTH 12 0
BBX 11 13 0 -1
BITMAP
0E00
3180
4040
5E40
9920
9920
9E20
9920
9920
5940
4040
3180
0E00
ENDCHAR

STARTCHAR macron
ENCODING 175
SWIDTH 440 0
DWIDTH 6 0
BBX 4 2 1 8
BITMAP
F0
F0
ENDCHAR

STARTCHAR degree
ENCODING 176
SWIDTH 400 0
DWIDTH 6 0
BBX 4 4 1 7
BITMAP
60
90
90
60
ENDCHAR

STARTCHAR plusminus
ENCODING 177
SWIDTH 660 0
DWIDTH 10 0
BBX 7 7 1 1
BITMAP
10
10
FE
10
10
00
FE
ENDCHAR

STARTCHAR twosuperior
ENCODING 178
SWIDTH 408 0
DWIDTH 6 0
BBX 4 6 1 5
BITMAP
60
B0
30
60
C0
F0
ENDCHAR

STARTCHAR threesuperior
ENCODING 179
SWIDTH 408 0
DWIDTH 6 0
BBX 4 6 1 5
BITMAP
E0
30
60
30
B0
60
ENDCHAR

STARTCHAR Zcaron
ENCODING 180
SWIDTH 620 0
DWIDTH 9 0
BBX 8 15 0 0
BITMAP
66
3C
18
00
FF
83
07
0E
1C
18
38
70
E0
C1
FF
ENDCHAR

STARTCHAR mu
ENCODING 181
SWIDTH 620 0
DWIDTH 10 0
BBX 9 10 0 -3
BITMAP
6300
E700
6300
6300
6300
6700
7B80
6000
6000
6000
ENDCHAR

STARTCHAR paragraph
ENCODING 182
SWIDTH 780 0
DWIDTH 11 0
BBX 9 14 1 -3
BITMAP
3F80
6500
C500
C500
C500
6500
7500
1D00
0500
0500
0500
0500
0500
0500
ENDCHAR

STARTCHAR periodcentered
ENCODING 183
SWIDTH 340 0
DWIDTH 5 0
BBX 2 2 1 3
BITMAP
C0
C0
ENDCHAR

STARTCHAR zcaron
ENCODING 184
SWIDTH 500 0
DWIDTH 7 0
BBX 6 11 0 0
BITMAP
CC
78
30
00
FC
8C
18
30
60
C4
FC
ENDCHAR

STARTCHAR onesuperior
ENCODING 185
SWIDTH 408 0
DWIDTH 6 0
BBX 3 6 1 5
BITMAP
40
C0
40
40
40
E0
ENDCHAR

STARTCHAR ordmasculine
ENCODING 186
SWIDTH 440 0
DWIDTH 6 0
BBX 4 7 1 5
BITMAP
60
D0
D0
D0
60
00
F0
ENDCHAR

STARTCHAR guillemotright
ENCODING 187
SWIDTH 380 0
DWIDTH 7 0
BBX 6 6 0 1
BITMAP
90
D8
6C
6C
D8
90
ENDCHAR

STARTCHAR Ligature_OE
ENCODING 188
SWIDTH 1200 0
DWIDTH 16 0
BBX 15 11 0 0
BITMAP
1EFE
73C2
61C0
E0C0
C0C4
C0FC
C0C4
E0C0
61C0
73C2
1EFE
ENDCHAR

STARTCHAR Ligature_oe
ENCODING 189
SWIDTH 960 0
DWIDTH 14 0
BBX 13 7 0 0
BITMAP
3CF0
6798
C318
C3F0
C300
6788
3CF0
ENDCHAR

STARTCHAR Ydiaeresis
ENCODING 190
SWIDTH 740 0
DWIDTH 11 0
BBX 10 14 0 0
BITMAP
1B00
1B00
0000
F3C0
6180
7100
3300
1E00
1C00
0C00
0C00
0C00
0C00
1E00
ENDCHAR

STARTCHAR questiondown
ENCODING 191
SWIDTH 540 0
DWIDTH 8 0
BBX 6 11 1 -3
BITMAP
30
30
00
00
10
30
60
C0
CC
CC
78
ENDCHAR

STARTCHAR Agrave
ENCODING 192
SWIDTH 740 0
DWIDTH 13 0
BBX 12 15 0 0
BITMAP
1C00
0C00
0600
0000
0600
0E00
0F00
1B00
1380
3180
2180
3FC0
60C0
40E0
E1F0
ENDCHAR

STARTCHAR Aacute
ENCODING 193
SWIDTH 740 0
DWIDTH 13 0
BBX 12 15 0 0
BITMAP
0380
0300
0600
0000
0600
0E00
0F00
1B00
1380
3180
2180
3FC0
60C0
40E0
E1F0
ENDCHAR

STARTCHAR Acircumflex
ENCODING 194
SWIDTH 740 0
DWIDTH 13 0
BBX 12 15 0 0
BITMAP
0600
0F00
1980
0000
0600
0E00
0F00
1B00
1380
3180
2180
3FC0
60C0
40E0
E1F0
ENDCHAR

STARTCHAR Atilde
ENCODING 195
SWIDTH 740 0
DWIDTH 13 0
BBX 12 14 0 0
BITMAP
0E80
1700
0000
0600
0E00
0F00
1B00
1380
3180
2180
3FC0
60C0
40E0
E1F0
ENDCHAR

STARTCHAR Adieresis
ENCODING 196
SWIDTH 740 0
DWIDTH 13 0
BBX 12 14 0 0
BITMAP
1B00
1B00
0000
0600
0E00
0F00
1B00
1380
3180
2180
3FC0
60C0
40E0
E1F0
ENDCHAR

STARTCHAR Aring
ENCODING 197
SWIDTH 740 0
DWIDTH 13 0
BBX 12 15 0 0
BITMAP
0600
0900
0900
0600
0600
0E00
0F00
1B00
1380
3180
2180
3FC0
60C0
40E0
E1F0
ENDCHAR

STARTCHAR AE
ENCODING 198
SWIDTH 1020 0
DWIDTH 15 0
BBX 14 11 0 0
BITMAP
03FC
0784
0D80
0980
1988
11F8
3F88
3180
6180
6184
F3FC
ENDCHAR

STARTCHAR Ccedilla
ENCODING 199
SWIDTH 760 0
DWIDTH 11 0
BBX 10 14 0 -3
BITMAP
1F00
7180
6080
E000
C000
C000
C000
E000
6040
7180
1F00
0800
0400
1C00
ENDCHAR

STARTCHAR Egrave
ENCODING 200
SWIDTH 660 0
DWIDTH 10 0
BBX 9 15 0 0
BITMAP
3800
1800
0C00
0000
FF80
6080
6000
6000
6200
7E00
6200
6000
6000
6080
FF80
ENDCHAR

STARTCHAR Eacute
ENCODING 201
SWIDTH 660 0
DWIDTH 10 0
BBX 9 15 0 0
BITMAP
0700
0600
0C00
0000
FF80
6080
6000
6000
6200
7E00
6200
6000
6000
6080
FF80
ENDCHAR

STARTCHAR Ecircumflex
ENCODING 202
SWIDTH 660 0
DWIDTH 10 0
BBX 9 15 0 0
BITMAP
0C00
1E00
3300
0000
FF80
6080
6000
6000
6200
7E00
6200
6000
6000
6080
FF80
ENDCHAR

STARTCHAR Edieresis
ENCODING 203
SWIDTH 660 0
DWIDTH 10 0
BBX 9 14 0 0
BITMAP
3600
3600
0000
FF80
6080
6000
6000
6200
7E00
6200
6000
6000
6080
FF80
ENDCHAR

STARTCHAR Igrave
ENCODING 204
SWIDTH 340 0
DWIDTH 5 0
BBX 5 15 -1 0
BITMAP
E0
60
30
00
78
30
30
30
30
30
30
30
30
30
78
ENDCHAR

STARTCHAR Iacute
ENCODING 205
SWIDTH 340 0
DWIDTH 5 0
BBX 5 15 0 0
BITMAP
38
30
60
00
F0
60
60
60
60
60
60
60
60
60
F0
ENDCHAR

STARTCHAR Icircumflex
ENCODING 206
SWIDTH 340 0
DWIDTH 5 0
BBX 6 15 -1 0
BITMAP
30
78
CC
00
78
30
30
30
30
30
30
30
30
30
78
ENDCHAR

STARTCHAR Idieresis
ENCODING 207
SWIDTH 340 0
DWIDTH 5 0
BBX 5 14 -1 0
BITMAP
D8
D8
00
78
30
30
30
30
30
30
30
30
30
78
ENDCHAR

STARTCHAR Eth
ENCODING 208
SWIDTH 820 0
DWIDTH 11 0
BBX 10 11 0 0
BITMAP
FE00
6380
6180
60C0
60C0
F8C0
60C0
60C0
6180
6380
FE00
ENDCHAR

STARTCHAR Ntilde
ENCODING 209
SWIDTH 760 0
DWIDTH 11 0
BBX 10 14 0 0
BITMAP
1D00
2E00
0000
E1C0
7080
7080
7880
5C80
4C80
4E80
4780
4380
4380
E180
ENDCHAR

STARTCHAR Ograve
ENCODING 210
SWIDTH 860 0
DWIDTH 12 0
BBX 11 15 0 0
BITMAP
1C00
0C00
0600
0000
1F00
71C0
60C0
E0E0
C060
C060
C060
E0E0
60C0
71C0
1F00
ENDCHAR

STARTCHAR Oacute
ENCODING 211
SWIDTH 860 0
DWIDTH 12 0
BBX 11 15 0 0
BITMAP
0700
0600
0C00
0000
1F00
71C0
60C0
E0E0
C060
C060
C060
E0E0
60C0
71C0
1F00
ENDCHAR

STARTCHAR Ocircumflex
ENCODING 212
SWIDTH 860 0
DWIDTH 12 0
BBX 11 15 0 0
BITMAP
0400
0E00
1B00
0000
1F00
71C0
60C0
E0E0
C060
C060
C060
E0E0
60C0
71C0
1F00
ENDCHAR

STARTCHAR Otilde
ENCODING 213
SWIDTH 860 0
DWIDTH 12 0
BBX 11 14 0 0
BITMAP
0E80
1700
0000
1F00
71C0
60C0
E0E0
C060
C060
C060
E0E0
60C0
71C0
1F00
ENDCHAR

STARTCHAR Odieresis
ENCODING 214
SWIDTH 860 0
DWIDTH 12 0
BBX 11 14 0 0
BITMAP
1B00
1B00
0000
1F00
71C0
60C0
E0E0
C060
C060
C060
E0E0
60C0
71C0
1F00
ENDCHAR

STARTCHAR multiply
ENCODING 215
SWIDTH 660 0
DWIDTH 10 0
BBX 8 7 1 1
BITMAP
C3
66
3C
18
3C
66
C3
ENDCHAR

STARTCHAR Oslash
ENCODING 216
SWIDTH 860 0
DWIDTH 12 0
BBX 11 11 0 0
BITMAP
1F60
71C0
61C0
C360
C660
CC60
D860
F060
60C0
71C0
DF00
ENDCHAR

STARTCHAR Ugrave
ENCODING 217
SWIDTH 760 0
DWIDTH 12 0
BBX 11 15 0 0
BITMAP
1C00
0C00
0600
0000
F0E0
6040
6040
6040
6040
6040
6040
6040
70C0
3980
1F00
ENDCHAR

STARTCHAR Uacute
ENCODING 218
SWIDTH 760 0
DWIDTH 12 0
BBX 11 15 0 0
BITMAP
0700
0600
0C00
0000
F0E0
6040
6040
6040
6040
6040
6040
6040
70C0
3980
1F00
ENDCHAR

STARTCHAR Ucircumflex
ENCODING 219
SWIDTH 760 0
DWIDTH 12 0
BBX 11 15 0 0
BITMAP
0600
0F00
1980
0000
F0E0
6040
6040
6040
6040
6040
6040
6040
70C0
3980
1F00
ENDCHAR

STARTCHAR Udieresis
ENCODING 220
SWIDTH 760 0
DWIDTH 12 0
BBX 11 14 0 0
BITMAP
1B00
1B00
0000
F0E0
6040
6040
6040
6040
6040
6040
6040
70C0
3980
1F00
ENDCHAR

STARTCHAR Yacute
ENCODING 221
SWIDTH 740 0
DWIDTH 11 0
BBX 10 15 0 0
BITMAP
0700
0600
0C00
0000
F3C0
6180
7100
3300
1E00
1C00
0C00
0C00
0C00
0C00
1E00
ENDCHAR

STARTCHAR Thorn
ENCODING 222
SWIDTH 680 0
DWIDTH 10 0
BBX 9 11 0 0
BITMAP
F000
6000
7F00
6380
6180
6180
6380
6700
7C00
6000
F000
ENDCHAR

STARTCHAR germandbls
ENCODING 223
SWIDTH 660 0
DWIDTH 9 0
BBX 8 11 0 0
BITMAP
1C
26
66
66
64
6E
67
63
6B
6F
E6
ENDCHAR

STARTCHAR agrave
ENCODING 224
SWIDTH 580 0
DWIDTH 9 0
BBX 8 11 0 0
BITMAP
70
30
18
00
7C
C6
3E
E6
C6
EE
77
ENDCHAR

STARTCHAR aacute
ENCODING 225
SWIDTH 580 0
DWIDTH 9 0
BBX 8 11 0 0
BITMAP
0E
0C
18
00
7C
C6
3E
E6
C6
EE
77
ENDCHAR

STARTCHAR acircumflex
ENCODING 226
SWIDTH 580 0
DWIDTH 9 0
BBX 8 11 0 0
BITMAP
10
38
6C
00
7C
C6
3E
E6
C6
EE
77
ENDCHAR

STARTCHAR atilde
ENCODING 227
SWIDTH 580 0
DWIDTH 9 0
BBX 8 10 0 0
BITMAP
3A
5C
00
7C
C6
3E
E6
C6
EE
77
ENDCHAR

STARTCHAR adieresis
ENCODING 228
SWIDTH 580 0
DWIDTH 9 0
BBX 8 10 0 0
BITMAP
6C
6C
00
7C
C6
3E
E6
C6
EE
77
ENDCHAR

STARTCHAR aring
ENCODING 229
SWIDTH 580 0
DWIDTH 9 0
BBX 8 11 0 0
BITMAP
18
24
18
00
7C
C6
3E
E6
C6
EE
77
ENDCHAR

STARTCHAR ae
ENCODING 230
SWIDTH 880 0
DWIDTH 13 0
BBX 12 7 0 0
BITMAP
7DE0
8730
3E30
E7E0
C600
CF10
79E0
ENDCHAR

STARTCHAR ccedilla
ENCODING 231
SWIDTH 520 0
DWIDTH 8 0
BBX 7 10 0 -3
BITMAP
3C
66
C2
C0
C0
62
3C
10
08
38
ENDCHAR

STARTCHAR egrave
ENCODING 232
SWIDTH 560 0
DWIDTH 8 0
BBX 7 11 0 0
BITMAP
70
30
18
00
3C
66
CE
FC
C0
62
3C
ENDCHAR

STARTCHAR eacute
ENCODING 233
SWIDTH 560 0
DWIDTH 8 0
BBX 7 11 0 0
BITMAP
0E
0C
18
00
3C
66
CE
FC
C0
62
3C
ENDCHAR

STARTCHAR ecircumflex
ENCODING 234
SWIDTH 560 0
DWIDTH 8 0
BBX 7 11 0 0
BITMAP
08
1C
36
00
3C
66
CE
FC
C0
62
3C
ENDCHAR

STARTCHAR edieresis
ENCODING 235
SWIDTH 560 0
DWIDTH 8 0
BBX 7 10 0 0
BITMAP
6C
6C
00
3C
66
CE
FC
C0
62
3C
ENDCHAR

STARTCHAR igrave
ENCODING 236
SWIDTH 300 0
DWIDTH 5 0
BBX 5 11 -1 0
BITMAP
E0
60
30
00
30
70
30
30
30
30
78
ENDCHAR

STARTCHAR iacute
ENCODING 237
SWIDTH 300 0
DWIDTH 5 0
BBX 5 11 0 0
BITMAP
38
30
60
00
60
E0
60
60
60
60
F0
ENDCHAR

STARTCHAR icircumflex
ENCODING 238
SWIDTH 300 0
DWIDTH 5 0
BBX 5 11 0 0
BITMAP
20
70
D8
00
60
E0
60
60
60
60
F0
ENDCHAR

STARTCHAR idieresis
ENCODING 239
SWIDTH 300 0
DWIDTH 5 0
BBX 5 10 -1 0
BITMAP
D8
D8
00
30
70
30
30
30
30
78
ENDCHAR

STARTCHAR eth
ENCODING 240
SWIDTH 660 0
DWIDTH 9 0
BBX 8 11 0 0
BITMAP
EC
38
6C
06
3E
67
C3
C3
C3
66
3C
ENDCHAR

STARTCHAR ntilde
ENCODING 241
SWIDTH 620 0
DWIDTH 10 0
BBX 9 10 0 0
BITMAP
3A00
5C00
0000
6E00
F700
6300
6300
6300
6300
F780
ENDCHAR

STARTCHAR ograve
ENCODING 242
SWIDTH 620 0
DWIDTH 9 0
BBX 8 11 0 0
BITMAP
70
30
18
00
3C
66
C3
C3
C3
66
3C
ENDCHAR

STARTCHAR oacute
ENCODING 243
SWIDTH 620 0
DWIDTH 9 0
BBX 8 11 0 0
BITMAP
0E
0C
18
00
3C
66
C3
C3
C3
66
3C
ENDCHAR

STARTCHAR ocircumflex
ENCODING 244
SWIDTH 620 0
DWIDTH 9 0
BBX 8 11 0 0
BITMAP
18
3C
66
00
3C
66
C3
C3
C3
66
3C
ENDCHAR

STARTCHAR otilde
ENCODING 245
SWIDTH 620 0
DWIDTH 9 0
BBX 8 10 0 0
BITMAP
3A
5C
00
3C
66
C3
C3
C3
66
3C
ENDCHAR

STARTCHAR odieresis
ENCODING 246
SWIDTH 620 0
DWIDTH 9 0
BBX 8 10 0 0
BITMAP
6C
6C
00
3C
66
C3
C3
C3
66
3C
ENDCHAR

STARTCHAR divide
ENCODING 247
SWIDTH 660 0
DWIDTH 10 0
BBX 8 7 1 1
BITMAP
18
18
00
FF
00
18
18
ENDCHAR

STARTCHAR oslash
ENCODING 248
SWIDTH 620 0
DWIDTH 9 0
BBX 8 7 0 0
BITMAP
3D
66
CF
DB
F3
66
BC
ENDCHAR

STARTCHAR ugrave
ENCODING 249
SWIDTH 620 0
DWIDTH 10 0
BBX 9 11 0 0
BITMAP
3800
1800
0C00
0000
6300
E700
6300
6300
6300
7700
3B80
ENDCHAR

STARTCHAR uacute
ENCODING 250
SWIDTH 620 0
DWIDTH 10 0
BBX 9 11 0 0
BITMAP
0E00
0C00
1800
0000
6300
E700
6300
6300
6300
7700
3B80
ENDCHAR

STARTCHAR ucircumflex
ENCODING 251
SWIDTH 620 0
DWIDTH 10 0
BBX 9 11 0 0
BITMAP
0800
1C00
3600
0000
6300
E700
6300
6300
6300
7700
3B80
ENDCHAR

STARTCHAR udieresis
ENCODING 252
SWIDTH 620 0
DWIDTH 10 0
BBX 9 10 0 0
BITMAP
3600
3600
0000
6300
E700
6300
6300
6300
7700
3B80
ENDCHAR

STARTCHAR yacute
ENCODING 253
SWIDTH 540 0
DWIDTH 8 0
BBX 7 14 0 -3
BITMAP
0E
0C
18
00
E6
62
62
62
64
34
18
08
70
60
ENDCHAR

STARTCHAR thorn
ENCODING 254
SWIDTH 640 0
DWIDTH 9 0
BBX 8 14 0 -3
BITMAP
60
E0
60
60
6C
76
63
63
63
76
6C
60
60
F0
ENDCHAR

STARTCHAR ydieresis
ENCODING 255
SWIDTH 540 0
DWIDTH 8 0
BBX 7 13 0 -3
BITMAP
6C
6C
00
E6
62
62
62
64
34
18
08
70
60
ENDCHAR
ENDFONT
